# xmcd CD database file
#
# Track frame offsets:
#	187
#	5790
#	25580
#	52812
#	73217
#	98115
#	124122
#	147212
#	169080
#	175097
#	203025
#	232077
#	252505
#
# Disc length: 3580 seconds
#
# Revision: 1
# Processed by: cddbd v1.5.2PL0 Copyright (c) Steve Scherf et al.
# Submitted via: CDex 1.70beta2
#
DISCID=b20dfa0d
DTITLE=望月衛介 - Still I Love You
DYEAR=1993
DGENRE=Easy Listening
TTITLE0=Will ～prologue～
TTITLE1=Still I love you
TTITLE2=Your words
TTITLE3=When I met you [恋の予感]
TTITLE4=I can't stand without you
TTITLE5=Everytime, missin' you
TTITLE6=You'll stay in my mind
TTITLE7=Around you, around me
TTITLE8=Presage
TTITLE9=Le mariage
TTITLE10=Piano blue
TTITLE11=True love
TTITLE12=Will ～epilogue～
EXTD=YEAR: 1993
EXTT0=
EXTT1=
EXTT2=
EXTT3=
EXTT4=
EXTT5=
EXTT6=
EXTT7=
EXTT8=
EXTT9=
EXTT10=
EXTT11=
EXTT12=
PLAYORDER=
